GIL01_free4_RRA_states
nRows=5
nColumns=47

# SIMM Motion File Header:
name GIL01_free4_RRA_states
datacolumns 47
datarows 5
otherdata 1
range 0.39983000000000019000 0.40183000000000019000
endheader
time	pelvis_tx	pelvis_ty	pelvis_tz	pelvis_tilt	pelvis_list	pelvis_rotation	hip_flexion_r	hip_adduction_r	hip_rotation_r	knee_angle_r	ankle_angle_r	subtalar_angle_r	mtp_angle_r	hip_flexion_l	hip_adduction_l	hip_rotation_l	knee_angle_l	ankle_angle_l	subtalar_angle_l	mtp_angle_l	lumbar_extension	lumbar_bending	lumbar_rotation	pelvis_tx_u	pelvis_ty_u	pelvis_tz_u	pelvis_tilt_u	pelvis_list_u	pelvis_rotation_u	hip_flexion_r_u	hip_adduction_r_u	hip_rotation_r_u	knee_angle_r_u	ankle_angle_r_u	subtalar_angle_r_u	mtp_angle_r_u	hip_flexion_l_u	hip_adduction_l_u	hip_rotation_l_u	knee_angle_l_u	ankle_angle_l_u	subtalar_angle_l_u	mtp_angle_l_u	lumbar_extension_u	lumbar_bending_u	lumbar_rotation_u
      0.39983000000000019000	      0.23128152099275495000	      0.81037471180026643000	     -0.30277474638147917000	     -2.09372892335529940000	      0.41148224613664514000	     -1.71450726970953650000	     26.43306707917183500000	     -0.25482769570573061000	      1.42521947679357510000	    -36.38643966271345000000	     -2.65406401819471640000	      0.00000000000000311401	     -0.00000000000000291256	     -2.62609295079501900000	      3.11323550619821750000	     -6.27895599750404280000	     -2.62794564142678320000	      6.37392727898627070000	     -0.00000000000001545680	     -0.00000000000000543589	     -2.66765002689778720000	     -0.37180437872388178000	     -3.65140179140448450000	      0.89714115822796336000	     -0.10682798665761478000	      0.01191330163927376400	      1.01104290758752960000	    -18.34769451505891500000	     22.86081223640002900000	     49.00608945817623400000	     26.87849004999947100000	    -30.40538049577147800000	    267.64119517633418000000	     36.09344271474751800000	      0.00000000000002028499	     -0.00000000000001988439	    -99.29599525660144400000	    -14.27049293504514300000	    -12.76447287918289000000	     43.12824504294062000000	     46.04495756487356300000	     -0.00000000000028175857	      0.00000000000046054373	     -1.30174186747742130000	      8.81110355515452070000	    -12.87422321340201700000
      0.40033000000000019000	      0.23173026094682267000	      0.81032108632425970000	     -0.30276871446142689000	     -2.09323727132769880000	      0.40231913874065639000	     -1.70307992219952880000	     26.45746440775419100000	     -0.24142702176563252000	      1.40986216905974700000	    -36.25241702458974700000	     -2.63613374223874210000	      0.00000000000000312399	     -0.00000000000000292197	     -2.67567965760764940000	      3.10610431668258120000	     -6.28545612176152350000	     -2.60649208157223590000	      6.39700730042978630000	     -0.00000000000001560189	     -0.00000000000000520333	     -2.66825114888797410000	     -0.36742032340527836000	     -3.65781850022909660000	      0.89781921091266104000	     -0.10767341407262689000	      0.01221218873136707200	      0.95541274778600116000	    -18.30464295370169100000	     22.84928987701085700000	     48.58270758489196300000	     26.72364783548353300000	    -31.02319059345407800000	    268.45008810354852000000	     35.62781567602434800000	      0.00000000000002005604	     -0.00000000000001600237	    -99.05040072533654400000	    -14.25427253997225900000	    -13.23564941439135700000	     42.68542570045354300000	     46.27540721085961200000	     -0.00000000000030838297	      0.00000000000049224834	     -1.10256193455928480000	      8.72552893523647730000	    -12.79415054183378700000
      0.40083000000000019000	      0.23217934072880900000	      0.81026703890266005000	     -0.30276253639111506000	     -2.09277365512255780000	      0.39317769921061141000	     -1.69165727205845860000	     26.48164925958175800000	     -0.22810461206425456000	      1.39419696345610980000	    -36.11798883227420700000	     -2.61843604501452990000	      0.00000000000000313416	     -0.00000000000000292973	     -2.72514294571872510000	      3.09898123203519350000	     -6.29219124631481290000	     -2.58526074035566420000	      6.42020279953261320000	     -0.00000000000001575667	     -0.00000000000000495268	     -2.66875242872839990000	     -0.36307844119213983000	     -3.66419747014872010000	      0.89850041359649091000	     -0.10851574172708725000	      0.01249788523215540100	      0.89891553238749500000	    -18.26101525163708700000	     22.84201420503506300000	     48.15616321897513100000	     26.56542064295809500000	    -31.63693622757617500000	    269.26343404620678000000	     35.16313415595502100000	      0.00000000000002014609	     -0.00000000000001459200	    -98.80237163204171200000	    -14.23806186682996600000	    -13.70442173107941600000	     42.23945905492366400000	     46.50653625445603700000	     -0.00000000000030117108	      0.00000000000049262125	     -0.90242158771709702000	      8.64240597110957860000	    -12.72324720718213700000
      0.40133000000000019000	      0.23262876185218601000	      0.81021257110428213000	     -0.30275621879201520000	     -2.09233849758857730000	      0.38405821978521626000	     -1.68023719432289200000	     26.50562003973252300000	     -0.21486216872114411000	      1.37822593870710590000	    -35.98315283815711800000	     -2.60097044798884850000	      0.00000000000000314447	     -0.00000000000000293727	     -2.77448163332807640000	      3.09186625264957550000	     -6.29916010793438370000	     -2.56425312968093120000	      6.44351393639716190000	     -0.00000000000001590710	     -0.00000000000000470063	     -2.66915342901949600000	     -0.35877750749967841000	     -3.67054327544095840000	      0.89918456602680841000	     -0.10935493788159591000	      0.01277028647737592700	      0.84156761316699102000	    -18.21680981310649700000	     22.83902054496747900000	     47.72643198154956700000	     26.40378803091489200000	    -32.24644571587434400000	    270.08129327080121000000	     34.69941378264524400000	      0.00000000000002111214	     -0.00000000000001615767	    -98.55196734626845500000	    -14.22186420256336700000	    -14.17058015403852500000	     41.79044993937194600000	     46.73826293852160100000	     -0.00000000000030444882	      0.00000000000052732525	     -0.70143273279447849000	      8.56174269894357210000	    -12.66151196257777300000
      0.40183000000000019000	      0.23307852576024038000	      0.81015768449183789000	     -0.30274976833584433000	     -2.09193222627889060000	      0.37496098586139570000	     -1.66881753262396120000	     26.52937515609191300000	     -0.20170139460813408000	      1.36195125158503630000	    -35.84790677784773300000	     -2.58373646872043180000	      0.00000000000000315506	     -0.00000000000000294597	     -2.82369452788082760000	      3.08475936508123730000	     -6.30636135697011380000	     -2.54347077977319060000	      6.46694115023351480000	     -0.00000000000001605767	     -0.00000000000000444396	     -2.66945373598738330000	     -0.35451628733610308000	     -3.67686051093053390000	      0.89987151002802324000	     -0.11019097072696887000	      0.01302930013834783700	      0.78338711228427393000	    -18.17202562425982700000	     22.84034024330913600000	     47.29348848597057800000	     26.23873217601737600000	    -32.85155121900196200000	    270.90371841344415000000	     34.23666897809975000000	      0.00000000000002115569	     -0.00000000000001805800	    -98.29925221070654100000	    -14.20568303513696400000	    -14.63392100337803600000	     41.33850516774368300000	     46.97051555853352100000	     -0.00000000000029815452	      0.00000000000050480665	     -0.49969124535882264000	      8.48354644711584350000	    -12.60894972204718900000
